<?xml version="1.0" encoding="UTF-8" standalone="no"?>
<svg
   viewBox="0 0 3333 3333"
   shape-rendering="geometricPrecision"
   text-rendering="geometricPrecision"
   image-rendering="optimizeQuality"
   fill-rule="evenodd"
   clip-rule="evenodd"
   version="1.1"
   id="svg352"
   sodipodi:docname="instagram-round.svg"
   inkscape:version="1.1 (c68e22c387, 2021-05-23)"
   xmlns:inkscape="http://www.inkscape.org/namespaces/inkscape"
   xmlns:sodipodi="http://sodipodi.sourceforge.net/DTD/sodipodi-0.dtd"
   xmlns="http://www.w3.org/2000/svg"
   xmlns:svg="http://www.w3.org/2000/svg">
  <defs
     id="defs356" />
  <sodipodi:namedview
     id="namedview354"
     pagecolor="#ffffff"
     bordercolor="#666666"
     borderopacity="1.0"
     inkscape:pageshadow="2"
     inkscape:pageopacity="0.0"
     inkscape:pagecheckerboard="0"
     showgrid="false"
     inkscape:zoom="0.24962496"
     inkscape:cx="1664.497"
     inkscape:cy="1664.497"
     inkscape:window-width="1920"
     inkscape:window-height="1017"
     inkscape:window-x="-8"
     inkscape:window-y="-8"
     inkscape:window-maximized="1"
     inkscape:current-layer="svg352" />
  <path
     d="M1667 0c920 0 1667 746 1667 1667 0 920-746 1667-1667 1667C747 3334 0 2588 0 1667 0 747 746 0 1667 0zm-390 752h780c293 0 532 237 532 525v778c0 289-239 525-532 525h-780c-293 0-532-236-532-525v-778c0-289 240-525 532-525zm385 421c285 0 516 231 516 516s-231 516-516 516-516-231-516-516 231-516 516-516zm0 174c188 0 341 153 341 341s-153 341-341 341c-189 0-341-153-341-341s153-341 341-341zm499-246c46 0 84 37 84 84 0 46-37 84-84 84-46 0-84-37-84-84 0-46 37-84 84-84zm-820-200h652c245 0 445 199 445 443v656c0 244-200 443-445 443h-652c-245 0-445-199-445-443v-656c0-244 200-443 445-443z"
     id="path350" />
  <path
     style="fill:#ffffff;stroke-width:4.00601"
     d="M 1229.845,2575.5535 C 1025.2196,2558.0181 844.72916,2417.9158 776.09066,2223.3353 747.74911,2142.991 749.1238,2171.3767 749.1238,1666.5 c 0,-429.0191 0.42205,-456.604 7.47765,-488.7332 46.77506,-213.00025 209.37581,-371.85028 425.17135,-415.36393 33.5544,-6.766 67.301,-7.27006 486.7302,-7.27006 h 450.6761 l 42.062,9.29324 c 51.6539,11.41252 116.4429,35.4468 154.959,57.48405 117.833,67.41889 207.5092,177.48163 247.3404,303.5694 22.3682,70.8081 22.3051,69.2781 22.3226,541.3161 0.016,382.2156 -0.7684,439.5257 -6.4549,472.7091 -32.6181,190.3425 -168.9659,348.0148 -354.6457,410.1115 -85.5419,28.6076 -62.9386,27.4 -532.2234,28.4366 -232.4487,0.5135 -440.6611,-0.6112 -462.6941,-2.4993 z m 876.1375,-144.6803 c 78.5598,-21.6033 145.2745,-60.2223 201.9702,-116.914 77.0624,-77.0572 120.0586,-168.6267 129.7807,-276.3958 5.0285,-55.7416 4.9477,-678.733 -0.095,-731.9089 -9.8581,-103.9556 -47.9012,-189.1524 -117.2772,-262.6403 -69.2736,-73.37926 -143.2527,-114.84614 -243.2452,-136.34418 -31.6001,-6.7939 -60.8681,-7.32086 -406.61,-7.32086 -399.8487,0 -397.0925,-0.12395 -464.6971,20.89817 -17.6264,5.48107 -46.2677,17.0939 -63.6473,25.8063 -123.2359,61.77837 -205.47305,167.48717 -239.47693,307.82737 -4.26396,17.5982 -5.33852,102.2645 -5.33852,420.631 v 398.598 l 11.01597,39.966 c 40.00287,145.1307 150.04048,262.0931 290.14948,308.4088 66.2924,21.9142 60.237,21.6514 480.0064,20.8356 l 388.583,-0.755 z"
     id="path432" />
  <path
     style="fill:#ffffff;stroke-width:4.00601"
     d="m 1612.4189,2201.0606 c -5.5083,-0.9432 -22.634,-3.7274 -38.0571,-6.187 -65.7959,-10.4931 -150.2603,-45.8525 -210.3155,-88.0448 -38.6226,-27.1345 -96.3676,-85.4997 -123.0452,-124.3668 -40.1897,-58.553 -68.2706,-124.3133 -83.6718,-195.9439 -9.8874,-45.9864 -10.0231,-144.0918 -0.2673,-193.2274 40.7536,-205.2569 200.4265,-366.842 402.3427,-407.161 80.5203,-16.0785 154.2737,-14.2492 231.1849,5.734 160.1008,41.5977 293.8434,161.8242 351.9689,316.3989 54.3524,144.5409 40.9704,304.618 -36.5898,437.6915 -74.5599,127.926 -202.8223,219.6095 -346.0736,247.3774 -32.2378,6.249 -127.0889,11.2201 -147.4762,7.7291 z m 118.4367,-177.6137 c 71.1853,-14.6918 127.5362,-46.15 178.8177,-99.8257 67.0413,-70.1713 99.211,-156.7307 94.0703,-253.1152 -6.8177,-127.8247 -78.0631,-235.1611 -192.8067,-290.4773 -48.8935,-23.5708 -75.5295,-30.1551 -132.6821,-32.7986 -102.6002,-4.7456 -186.2538,27.3913 -257.9631,99.1006 -71.7094,71.7094 -103.8463,155.3629 -99.1007,257.9631 2.7069,58.5239 9.2567,84.1353 34.9,136.4676 68.4548,139.7016 221.5166,214.3142 374.7646,182.6855 z"
     id="path471" />
  <path
     style="fill:#ffffff;stroke-width:4.00601"
     d="m 2129.2227,1259.5175 c -29.345,-12.7256 -48.4647,-41.4796 -48.7109,-73.2559 -0.5771,-74.5074 89.1666,-110.997 138.5509,-56.3346 18.0402,19.9684 22.2997,30.7171 22.2997,56.2722 0,57.1997 -59.5408,96.1282 -112.1397,73.3183 z"
     id="path510" />
</svg>
